<svg width="7.874016889436978in" height="2.059051513671876in" viewBox="0 0 7.874016889436978 2.059051513671876" xmlns="http://www.w3.org/2000/svg" xmlnsXlink="http://www.w3.org/1999/xlink">
  <g transform="translate(0 2.059051513671876)">
    <g data-reactroot="" transform="scale(1, -1)"><g fill="rgb(95,95,95)" stroke="none"><g transform="matrix(1,0,0,1,4.330709802822805,0.982177734375)"><path class="fill" d="M -2.9251757424773164 -0.4979248046875 C -2.9251757424773164 -0.4979248046875 3.543307086614173 -0.4979248046875 3.543307086614173 -0.4979248046875 C 3.543307086614173 -0.4979248046875 3.543307086614173 1.076873779296875 3.543307086614173 1.076873779296875 C 3.543307086614173 1.076873779296875 -3.543307086614173 1.076873779296875 -3.543307086614173 1.076873779296875 C -3.543307086614173 1.076873779296875 -3.543307086614173 -0.4979248046875 -3.543307086614173 -0.4979248046875 C -3.543307086614173 -0.4979248046875 -3.397616687359206 -0.4979248046875 -3.397616687359206 -0.4979248046875 C -3.397616687359206 -0.4979248046875 -3.397616687359206 -1.076873779296875 -3.397616687359206 -1.076873779296875 C -3.397616687359206 -1.076873779296875 -2.9251757424773164 -1.076873779296875 -2.9251757424773164 -1.076873779296875 C -2.9251757424773164 -1.076873779296875 -2.9251757424773164 -0.4979248046875 -2.9251757424773164 -0.4979248046875"></path></g></g><g fill="rgb(69,69,69)" stroke="none"><g transform="matrix(1,0,0,1,4.330707520011842,1.2637795275590546)"><path class="fill" d="M -3.543307086614173 -0.19685039370078738 C -3.543307086614173 -0.19685039370078738 3.543307086614173 -0.19685039370078738 3.543307086614173 -0.19685039370078738 C 3.543307086614173 -0.19685039370078738 3.543307086614173 0.19685039370078738 3.543307086614173 0.19685039370078738 C 3.543307086614173 0.19685039370078738 -3.543307086614173 0.19685039370078738 -3.543307086614173 0.19685039370078738 C -3.543307086614173 0.19685039370078738 -3.543307086614173 -0.19685039370078738 -3.543307086614173 -0.19685039370078738"></path></g></g><g fill="rgb(0,0,0)" stroke="none"><g transform="matrix(1,0,0,1,4.330707520011842,1.263779527559055)"><path class="fill" d="M -3.543307086614173 -0.09842519685039369 C -3.543307086614173 -0.09842519685039369 3.543307086614173 -0.09842519685039369 3.543307086614173 -0.09842519685039369 C 3.543307086614173 -0.09842519685039369 3.543307086614173 0.09842519685039369 3.543307086614173 0.09842519685039369 C 3.543307086614173 0.09842519685039369 -3.543307086614173 0.09842519685039369 -3.543307086614173 0.09842519685039369 C -3.543307086614173 0.09842519685039369 -3.543307086614173 -0.09842519685039369 -3.543307086614173 -0.09842519685039369"></path></g></g><g fill="rgb(0,0,0)" stroke="none"><g transform="matrix(1,0,0,1,6.889763779527559,0.7874015748031495)"><path class="fill" d="M 0 0.19685039370078738 C 0.10871747043307085 0.19685039370078738 0.19685039370078738 0.10871747043307085 0.19685039370078738 0 C 0.19685039370078738 -0.10871747043307085 0.10871747043307085 -0.19685039370078738 0 -0.19685039370078738 C -0.10871747043307085 -0.19685039370078738 -0.19685039370078738 -0.10871747043307085 -0.19685039370078738 0 C -0.19685039370078738 0.10871747043307085 -0.10871747043307085 0.19685039370078738 0 0.19685039370078738"></path></g></g></g>
  </g>
</svg>